<?xml version="1.0" encoding="utf-8"?>
<!-- Generator: Adobe Illustrator 24.1.0, SVG Export Plug-In . SVG Version: 6.00 Build 0)  -->
<svg version="1.1" id="Layer_1" xmlns="http://www.w3.org/2000/svg" xmlns:xlink="http://www.w3.org/1999/xlink" x="0px" y="0px"
	 viewBox="0 0 16 16" style="enable-background:new 0 0 16 16;" xml:space="preserve">
<style type="text/css">
	.st0{fill:#636466;}
	.st1{opacity:0.36;}
	.st2{fill:#BABCBE;}
</style>
<path class="st0" d="M12.2,8.9C11.7,10,11,11,10.2,12c-0.7,0.9-1.4,1.8-2.2,2.6c-0.8-0.8-1.5-1.7-2.2-2.6c-0.7-0.9-1.4-2-2-3.1
	C3.3,7.9,3,6.9,3,6c0-2.8,2.2-5,5-5s5,2.2,5,5C13,6.9,12.7,7.9,12.2,8.9z M8,16c0,0,6-5.7,6-10c0-3.3-2.7-6-6-6S2,2.7,2,6
	C2,10.3,8,16,8,16z"/>
<path class="st0" d="M8,8C6.9,8,6,7.1,6,6s0.9-2,2-2s2,0.9,2,2S9.1,8,8,8z M8,9c1.7,0,3-1.3,3-3S9.7,3,8,3S5,4.3,5,6S6.3,9,8,9z"/>
<g class="st1">
	<path class="st2" d="M8,1C5.2,1,3,3.2,3,6c0,0.9,0.3,1.9,0.8,2.9c0.6,1.1,1.3,2.2,2,3.1c0.7,0.9,1.4,1.8,2.2,2.6
		c0.8-0.8,1.5-1.7,2.2-2.6c0.8-1,1.5-2,2-3.1c0.5-1,0.8-2,0.8-2.9C13,3.2,10.8,1,8,1z M8,9C6.3,9,5,7.7,5,6s1.3-3,3-3s3,1.3,3,3
		S9.7,9,8,9z"/>
</g>
</svg>
